# xmcd
#
# Track frame offsets: 
#        150
#        20072
#        38503
#        62328
#        81403
#        105164
#        122542
#        140613
#        160206
#        179515
#        197262
#        216465
#        239321
#
# Disc length: 3410 seconds
#
# Revision: 0
# Processed by: cddbd v1.5.2PL0 Copyright (c) Steve Scherf et al.
# Submitted via: ExactAudioCopyFreeDBPlugin 1.0
#
DISCID=a90d500d
DTITLE=伽菲珈而 - DTS51金嗓子
DYEAR=2007
DGENRE=DTS
TTITLE0=云儿
TTITLE1=月牙泉
TTITLE2=一把小雨伞
TTITLE3=魂萦旧梦
TTITLE4=生生为爱
TTITLE5=花瓣雨
TTITLE6=有时跳舞
TTITLE7=月半弯
TTITLE8=不要分离
TTITLE9=眷恋
TTITLE10=听风安排
TTITLE11=呼吸
TTITLE12=Yesterday
EXTD=
EXTT0=
EXTT1=
EXTT2=
EXTT3=
EXTT4=
EXTT5=
EXTT6=
EXTT7=
EXTT8=
EXTT9=
EXTT10=
EXTT11=
EXTT12=
PLAYORDER=
